<mxfile host="65bd71144e">
    <diagram id="dbz_1_67-CReoJ5luYzj" name="Page-1">
        <mxGraphModel dx="1669" dy="790" grid="1" gridSize="10" guides="1" tooltips="1" connect="1" arrows="1" fold="1" page="1" pageScale="1" pageWidth="850" pageHeight="1100" background="none" math="0" shadow="0">
            <root>
                <mxCell id="0"/>
                <mxCell id="1" parent="0"/>
                <mxCell id="2" value="" style="rounded=0;whiteSpace=wrap;html=1;fillColor=#FF9999;fontColor=#ffffff;strokeColor=#A50040;" parent="1" vertex="1">
                    <mxGeometry x="160" y="380" width="320" height="90" as="geometry"/>
                </mxCell>
                <mxCell id="3" value="infra" style="text;html=1;align=center;verticalAlign=middle;resizable=0;points=[];autosize=1;strokeColor=none;fillColor=none;fontStyle=1;labelBackgroundColor=none;labelBorderColor=none;" parent="1" vertex="1">
                    <mxGeometry x="445" y="360" width="40" height="20" as="geometry"/>
                </mxCell>
                <mxCell id="4" value="" style="rounded=0;whiteSpace=wrap;html=1;fillColor=#FFCC99;strokeColor=#FF9933;" parent="1" vertex="1">
                    <mxGeometry x="160" y="500" width="320" height="200" as="geometry"/>
                </mxCell>
                <mxCell id="5" value="data" style="text;html=1;align=center;verticalAlign=middle;resizable=0;points=[];autosize=1;strokeColor=none;fillColor=none;fontStyle=1;labelBackgroundColor=none;labelBorderColor=none;" parent="1" vertex="1">
                    <mxGeometry x="440" y="480" width="40" height="20" as="geometry"/>
                </mxCell>
                <mxCell id="6" value="" style="rounded=0;whiteSpace=wrap;html=1;fillColor=#CCFF99;strokeColor=#80FF00;" parent="1" vertex="1">
                    <mxGeometry x="160" y="750" width="320" height="110" as="geometry"/>
                </mxCell>
                <mxCell id="7" value="domain&lt;br&gt;" style="text;html=1;align=center;verticalAlign=middle;resizable=0;points=[];autosize=1;strokeColor=none;fillColor=none;fontStyle=1;labelBackgroundColor=none;labelBorderColor=none;" parent="1" vertex="1">
                    <mxGeometry x="425" y="730" width="60" height="20" as="geometry"/>
                </mxCell>
                <mxCell id="63" style="edgeStyle=none;html=1;fontColor=#000000;exitX=0.204;exitY=1;exitDx=0;exitDy=0;exitPerimeter=0;fillColor=#d80073;strokeColor=#FF0808;strokeWidth=2;" parent="1" source="8" edge="1">
                    <mxGeometry relative="1" as="geometry">
                        <mxPoint x="480" y="445" as="targetPoint"/>
                    </mxGeometry>
                </mxCell>
                <mxCell id="65" style="edgeStyle=none;html=1;fontColor=#000000;fillColor=#d80073;strokeColor=#FF0808;strokeWidth=2;exitX=0.536;exitY=1.013;exitDx=0;exitDy=0;exitPerimeter=0;" parent="1" source="8" edge="1">
                    <mxGeometry relative="1" as="geometry">
                        <mxPoint x="480" y="552" as="targetPoint"/>
                    </mxGeometry>
                </mxCell>
                <mxCell id="67" style="edgeStyle=none;html=1;entryX=1.005;entryY=0.438;entryDx=0;entryDy=0;entryPerimeter=0;fontColor=#000000;exitX=0.848;exitY=0.989;exitDx=0;exitDy=0;exitPerimeter=0;fillColor=#d80073;strokeColor=#FF0808;rounded=0;strokeWidth=2;" parent="1" source="8" target="6" edge="1">
                    <mxGeometry relative="1" as="geometry">
                        <Array as="points">
                            <mxPoint x="520" y="651"/>
                            <mxPoint x="520" y="798"/>
                        </Array>
                    </mxGeometry>
                </mxCell>
                <mxCell id="8" value="" style="rounded=0;whiteSpace=wrap;html=1;direction=south;fillColor=#FFCCE6;strokeColor=#FF66B3;" parent="1" vertex="1">
                    <mxGeometry x="580" y="380" width="190" height="320" as="geometry"/>
                </mxCell>
                <mxCell id="9" value="main" style="text;html=1;align=center;verticalAlign=middle;resizable=0;points=[];autosize=1;strokeColor=none;fillColor=none;fontStyle=1;labelBackgroundColor=none;labelBorderColor=none;" parent="1" vertex="1">
                    <mxGeometry x="732" y="360" width="40" height="20" as="geometry"/>
                </mxCell>
                <mxCell id="10" value="" style="rounded=0;whiteSpace=wrap;html=1;fillColor=#99FFFF;strokeColor=#33FFFF;" parent="1" vertex="1">
                    <mxGeometry x="580" y="750" width="190" height="110" as="geometry"/>
                </mxCell>
                <mxCell id="11" value="store" style="text;html=1;align=center;verticalAlign=middle;resizable=0;points=[];autosize=1;strokeColor=none;fillColor=none;fontStyle=1;labelBackgroundColor=none;labelBorderColor=none;" parent="1" vertex="1">
                    <mxGeometry x="733" y="730" width="40" height="20" as="geometry"/>
                </mxCell>
                <mxCell id="13" value="SyncProduto" style="rounded=1;whiteSpace=wrap;html=1;fontStyle=1;dashed=1;fontColor=#000000;fillColor=#FFFFFF;strokeColor=#000000;strokeWidth=2;" parent="1" vertex="1">
                    <mxGeometry x="280" y="790" width="80" height="30" as="geometry"/>
                </mxCell>
                <mxCell id="28" style="edgeStyle=none;html=1;fillColor=#d80073;strokeColor=#FF0808;strokeWidth=2;" parent="1" source="18" target="13" edge="1">
                    <mxGeometry relative="1" as="geometry"/>
                </mxCell>
                <mxCell id="29" style="edgeStyle=none;html=1;fillColor=#d80073;strokeColor=#A50040;" parent="1" source="18" target="24" edge="1">
                    <mxGeometry relative="1" as="geometry"/>
                </mxCell>
                <mxCell id="56" value="" style="edgeStyle=none;html=1;fontColor=#000000;fillColor=#d80073;strokeColor=#FF0808;strokeWidth=2;" parent="1" source="18" target="24" edge="1">
                    <mxGeometry relative="1" as="geometry"/>
                </mxCell>
                <mxCell id="59" style="edgeStyle=none;html=1;fontColor=#000000;fillColor=#d80073;strokeColor=#FF0808;strokeWidth=2;" parent="1" source="18" target="58" edge="1">
                    <mxGeometry relative="1" as="geometry"/>
                </mxCell>
                <mxCell id="18" value="RemoteSyncProduto" style="rounded=1;whiteSpace=wrap;html=1;fontStyle=1;fontColor=#000000;fillColor=#FFFFFF;strokeColor=#000000;" parent="1" vertex="1">
                    <mxGeometry x="255" y="650" width="130" height="40" as="geometry"/>
                </mxCell>
                <mxCell id="19" value="HttpClient" style="rounded=1;whiteSpace=wrap;html=1;fontStyle=1;dashed=1;fontColor=#000000;fillColor=#FFFFFF;strokeColor=#000000;strokeWidth=2;" parent="1" vertex="1">
                    <mxGeometry x="195" y="520" width="80" height="30" as="geometry"/>
                </mxCell>
                <mxCell id="34" style="edgeStyle=none;html=1;fillColor=#d80073;strokeColor=#FF0808;strokeWidth=2;" parent="1" source="24" target="19" edge="1">
                    <mxGeometry relative="1" as="geometry"/>
                </mxCell>
                <mxCell id="24" value="ProdutoService" style="rounded=1;whiteSpace=wrap;html=1;fontStyle=1;fontColor=#000000;fillColor=#FFFFFF;strokeColor=#000000;" parent="1" vertex="1">
                    <mxGeometry x="170" y="580" width="130" height="40" as="geometry"/>
                </mxCell>
                <mxCell id="27" style="edgeStyle=none;html=1;fillColor=#d80073;strokeColor=#FF0808;strokeWidth=2;" parent="1" source="26" target="19" edge="1">
                    <mxGeometry relative="1" as="geometry"/>
                </mxCell>
                <mxCell id="40" style="edgeStyle=none;html=1;fillColor=#d80073;strokeColor=#FF0808;strokeWidth=2;" parent="1" source="26" target="38" edge="1">
                    <mxGeometry relative="1" as="geometry"/>
                </mxCell>
                <mxCell id="26" value="AxiosHttpClient" style="rounded=1;whiteSpace=wrap;html=1;fontStyle=1;fillColor=#FFFFFF;fontColor=#000000;strokeColor=#000000;" parent="1" vertex="1">
                    <mxGeometry x="170" y="405" width="130" height="40" as="geometry"/>
                </mxCell>
                <mxCell id="43" style="edgeStyle=none;html=1;fontColor=#000000;fillColor=#d80073;strokeColor=#FC0000;strokeWidth=2;" parent="1" source="37" target="41" edge="1">
                    <mxGeometry relative="1" as="geometry"/>
                </mxCell>
                <mxCell id="37" value="SyncProdutoSaga" style="rounded=1;whiteSpace=wrap;html=1;fontStyle=1;fontColor=#000000;fillColor=#FFFFFF;strokeColor=#000000;" parent="1" vertex="1">
                    <mxGeometry x="610" y="785" width="130" height="40" as="geometry"/>
                </mxCell>
                <mxCell id="38" value="Axios" style="rounded=1;whiteSpace=wrap;html=1;fontStyle=1;fillColor=#B8B8B8;fontColor=#000000;strokeColor=#000000;" parent="1" vertex="1">
                    <mxGeometry x="170" y="300" width="130" height="40" as="geometry"/>
                </mxCell>
                <mxCell id="41" value="&lt;b&gt;RemoteSyncProdutoFactory&lt;/b&gt;" style="rounded=1;whiteSpace=wrap;html=1;fontColor=#000000;strokeColor=#000000;fillColor=#FFFFFF;" parent="1" vertex="1">
                    <mxGeometry x="590" y="410" width="170" height="40" as="geometry"/>
                </mxCell>
                <mxCell id="48" value="Repository" style="rounded=1;whiteSpace=wrap;html=1;fontStyle=1;dashed=1;fontColor=#000000;fillColor=#FFFFFF;strokeColor=#000000;strokeWidth=2;" parent="1" vertex="1">
                    <mxGeometry x="365" y="520" width="80" height="30" as="geometry"/>
                </mxCell>
                <mxCell id="51" style="edgeStyle=none;html=1;fontColor=#000000;fillColor=#d80073;strokeColor=#FF0808;strokeWidth=2;" parent="1" source="50" target="48" edge="1">
                    <mxGeometry relative="1" as="geometry"/>
                </mxCell>
                <mxCell id="53" style="edgeStyle=none;html=1;fontColor=#000000;fillColor=#d80073;strokeColor=#FF0808;strokeWidth=2;" parent="1" source="50" target="52" edge="1">
                    <mxGeometry relative="1" as="geometry"/>
                </mxCell>
                <mxCell id="50" value="DexieRepository" style="rounded=1;whiteSpace=wrap;html=1;fontStyle=1;fillColor=#FFFFFF;fontColor=#000000;strokeColor=#000000;" parent="1" vertex="1">
                    <mxGeometry x="340" y="405" width="130" height="40" as="geometry"/>
                </mxCell>
                <mxCell id="52" value="Dexie(IndexedDB lib)" style="rounded=1;whiteSpace=wrap;html=1;fontStyle=1;fillColor=#B8B8B8;fontColor=#000000;strokeColor=#000000;" parent="1" vertex="1">
                    <mxGeometry x="340" y="300" width="130" height="40" as="geometry"/>
                </mxCell>
                <mxCell id="61" style="edgeStyle=none;html=1;fontColor=#000000;fillColor=#d80073;strokeColor=#FF0808;strokeWidth=2;" parent="1" source="58" target="48" edge="1">
                    <mxGeometry relative="1" as="geometry"/>
                </mxCell>
                <mxCell id="58" value="ProdutoRepository" style="rounded=1;whiteSpace=wrap;html=1;fontStyle=1;fontColor=#000000;fillColor=#FFFFFF;strokeColor=#000000;" parent="1" vertex="1">
                    <mxGeometry x="340" y="580" width="130" height="40" as="geometry"/>
                </mxCell>
                <mxCell id="69" style="edgeStyle=none;html=1;entryX=0.5;entryY=1;entryDx=0;entryDy=0;exitX=0.5;exitY=0;exitDx=0;exitDy=0;strokeWidth=2;fillColor=#e51400;strokeColor=#FF0000;" edge="1" parent="1" source="68" target="10">
                    <mxGeometry relative="1" as="geometry">
                        <Array as="points">
                            <mxPoint x="675" y="940"/>
                        </Array>
                    </mxGeometry>
                </mxCell>
                <mxCell id="68" value="Components" style="rounded=1;whiteSpace=wrap;html=1;fontStyle=1;fontColor=#000000;fillColor=#FFFFFF;strokeColor=#000000;" vertex="1" parent="1">
                    <mxGeometry x="610" y="980" width="130" height="40" as="geometry"/>
                </mxCell>
            </root>
        </mxGraphModel>
    </diagram>
</mxfile>
